<svg width="40" height="40" viewBox="0 0 40 40" fill="none" xmlns="http://www.w3.org/2000/svg">
<path d="M15 35V22.6666C15 21.7332 15 21.2665 15.1817 20.91C15.3414 20.5964 15.5964 20.3414 15.91 20.1816C16.2665 20 16.7332 20 17.6667 20H22.3333C23.2668 20 23.7335 20 24.09 20.1816C24.4036 20.3414 24.6586 20.5964 24.8183 20.91C25 21.2665 25 21.7332 25 22.6666V35M18.3628 4.60666L7.05898 13.3985C6.30337 13.9862 5.92556 14.2801 5.65338 14.6481C5.41228 14.9741 5.23267 15.3413 5.12338 15.7318C5 16.1725 5 16.6512 5 17.6084V29.6666C5 31.5335 5 32.4669 5.36331 33.1799C5.68289 33.8071 6.19282 34.3171 6.82003 34.6367C7.53307 35 8.46649 35 10.3333 35H29.6667C31.5335 35 32.4669 35 33.18 34.6367C33.8072 34.3171 34.3171 33.8071 34.6367 33.1799C35 32.4669 35 31.5335 35 29.6666V17.6084C35 16.6512 35 16.1725 34.8766 15.7318C34.7673 15.3413 34.5877 14.9741 34.3466 14.6481C34.0744 14.2801 33.6966 13.9862 32.941 13.3985L21.6372 4.60667C21.0516 4.15124 20.7589 3.92353 20.4356 3.836C20.1503 3.75877 19.8497 3.75877 19.5644 3.836C19.2411 3.92353 18.9484 4.15124 18.3628 4.60666Z" stroke="white" stroke-width="4" stroke-linecap="round" stroke-linejoin="round"/>
</svg>
